nColumns=19
nRows=66
DataType=double
version=3
OpenSimVersion=4.1
endheader
time	ground_force_1_vx	ground_force_1_vy	ground_force_1_vz	ground_force_1_px	ground_force_1_py	ground_force_1_pz	ground_force_1_mx	ground_force_1_my	ground_force_1_mz	ground_force_2_vx	ground_force_2_vy	ground_force_2_vz	ground_force_2_px	ground_force_2_py	ground_force_2_pz	ground_force_2_mx	ground_force_2_my	ground_force_2_mz
0	-14.2007	127.019	-2.9886	0.118905	0.006	-0.100149	0	0.122664	0	0	0	0	0.778403	0	-0.207495	0	0	0
0.01	-17.5899	160.88	-3.05629	0.12286	0.006	-0.0999275	0	0.191652	0	0	0	0	0.778403	0	-0.207495	0	0	0
0.02	-22.2347	199.237	-3.36161	0.126943	0.006	-0.0996105	0	0.271284	0	0	0	0	0.778403	0	-0.207495	0	0	0
0.03	-28.1087	241.438	-3.9949	0.13059	0.006	-0.0992345	0	0.365609	0	0	0	0	0.778403	0	-0.207495	0	0	0
0.04	-34.9854	286.642	-5.06745	0.133922	0.006	-0.0987985	0	0.478819	0	0	0	0	0.778403	0	-0.207495	0	0	0
0.05	-42.5219	333.858	-6.68547	0.137008	0.006	-0.0982995	0	0.613983	0	0	0	0	0.778403	0	-0.207495	0	0	0
0.06	-50.3285	382.002	-8.91673	0.139886	0.006	-0.0977415	0	0.771784	0	0	0	0	0.778403	0	-0.207495	0	0	0
0.07	-57.9888	429.981	-11.7677	0.142575	0.006	-0.0971335	0	0.95096	0	0	0	0	0.778403	0	-0.207495	0	0	0
0.08	-65.0919	476.777	-15.17	0.145081	0.006	-0.0964855	0	1.14965	0	0	0	0	0.778403	0	-0.207495	0	0	0
0.09	-71.2819	521.516	-18.9876	0.147411	0.006	-0.0958105	0	1.36588	0	0	0	0	0.778403	0	-0.207495	0	0	0
0.1	-76.2932	563.508	-23.0423	0.149574	0.006	-0.0951205	0	1.5959	0	0	0	0	0.778403	0	-0.207495	0	0	0
0.11	-79.955	602.226	-27.1386	0.151583	0.006	-0.0944265	0	1.83357	0	0	0	0	0.778403	0	-0.207495	0	0	0
0.12	-82.1791	637.256	-31.0837	0.153454	0.006	-0.0937365	0	2.0718	0	0	0	0	0.778403	0	-0.207495	0	0	0
0.13	-82.9518	668.248	-34.7059	0.155207	0.006	-0.0930575	0	2.30436	0	0	0	0	0.778403	0	-0.207495	0	0	0
0.14	-82.3266	694.896	-37.8784	0.156866	0.006	-0.0923905	0	2.52624	0	0	0	0	0.778403	0	-0.207495	0	0	0
0.15	-80.4169	716.946	-40.534	0.158458	0.006	-0.0917325	0	2.73326	0	0	0	0	0.778403	0	-0.207495	0	0	0
0.16	-77.385	734.232	-42.6612	0.160016	0.006	-0.0910765	0	2.92212	0	0	0	0	0.778403	0	-0.207495	0	0	0
0.17	-73.4242	746.717	-44.2865	0.161575	0.006	-0.0904145	0	3.0906	0	0	0	0	0.778403	0	-0.207495	0	0	0
0.18	-68.7392	754.523	-45.458	0.163168	0.006	-0.0897375	0	3.23725	0	0	0	0	0.778403	0	-0.207495	0	0	0
0.19	-63.5286	757.95	-46.2345	0.164823	0.006	-0.0890405	0	3.36058	0	0	0	0	0.778403	0	-0.207495	0	0	0
0.2	-57.971	757.453	-46.6781	0.166562	0.006	-0.0883225	0	3.45842	0	0	0	0	0.778403	0	-0.207495	0	0	0
0.21	-52.2182	753.621	-46.8491	0.168398	0.006	-0.0875875	0	3.52755	0	0	0	0	0.778403	0	-0.207495	0	0	0
0.22	-46.39	747.134	-46.8038	0.170331	0.006	-0.0868455	0	3.56383	0	0	0	0	0.778403	0	-0.207495	0	0	0
0.23	-40.5712	738.716	-46.5962	0.172353	0.006	-0.0861105	0	3.5626	0	0	0	0	0.778403	0	-0.207495	0	0	0
0.24	-34.8153	729.094	-46.2797	0.174444	0.006	-0.0854025	0	3.51917	0	0	0	0	0.778403	0	-0.207495	0	0	0
0.25	-29.1521	718.956	-45.9072	0.176581	0.006	-0.0847485	0	3.42902	0	0	0	0	0.778403	0	-0.207495	0	0	0
0.26	-23.5941	708.918	-45.5285	0.178737	0.006	-0.0841735	0	3.28819	0	0	0	0	0.778403	0	-0.207495	0	0	0
0.27	-18.141	699.502	-45.185	0.180888	0.006	-0.0837095	0	3.09348	0	0	0	0	0.778403	0	-0.207495	0	0	0
0.28	-12.784	691.124	-44.9041	0.183014	0.006	-0.0833865	0	2.84269	0	0	0	0	0.778403	0	-0.207495	0	0	0
0.29	-7.51134	684.101	-44.6945	0.185108	0.006	-0.0832325	0	2.53495	0	0	0	0	0.778403	0	-0.207495	0	0	0
0.3	-2.31271	678.667	-44.5455	0.187175	0.006	-0.0832725	0	2.17105	0	0	0	0	0.778403	0	-0.207495	0	0	0
0.31	2.81584	674.992	-44.4291	0.189235	0.006	-0.0835235	0	1.75404	0	0	0	0	0.778403	0	-0.207495	0	0	0
0.32	7.86887	673.198	-44.3056	0.19133	0.006	-0.0839935	0	1.28946	0	0	0	0	0.778403	0	-0.207495	0	0	0
0.33	12.8298	673.366	-44.1305	0.193515	0.006	-0.0846785	0	0.785383	0	0	0	0	0.778403	0	-0.207495	0	0	0
0.34	17.6703	675.539	-43.8627	0.195855	0.006	-0.0855605	0	0.252521	0	0	0	0	0.778403	0	-0.207495	0	0	0
0.35	22.3513	679.713	-43.4692	0.198423	0.006	-0.0866105	0	-0.295862	0	0	0	0	0.778403	0	-0.207495	0	0	0
0.36	26.827	685.814	-42.9283	0.201286	0.006	-0.0877875	0	-0.844606	0	0	0	0	0.778403	0	-0.207495	0	0	0
0.37	31.0503	693.688	-42.233	0.204501	0.006	-0.0890475	0	-1.37778	0	0	0	0	0.778403	0	-0.207495	0	0	0
0.38	34.978	703.092	-41.3939	0.208113	0.006	-0.0903415	0	-1.87993	0	0	0	0	0.778403	0	-0.207495	0	0	0
0.39	38.5729	713.719	-40.4391	0.212151	0.006	-0.0916235	0	-2.33696	0	0	0	0	0.778403	0	-0.207495	0	0	0
0.4	41.8082	725.216	-39.4111	0.216635	0.006	-0.0928565	0	-2.73694	0	0	0	0	0.778403	0	-0.207495	0	0	0
0.41	44.6709	737.209	-38.3621	0.221566	0.006	-0.0940085	0	-3.07083	0	0	0	0	0.778403	0	-0.207495	0	0	0
0.42	47.1609	749.341	-37.3464	0.226936	0.006	-0.0950615	0	-3.33311	0	0	0	0	0.778403	0	-0.207495	0	0	0
0.43	49.2959	761.311	-36.4129	0.23272	0.006	-0.0960055	0	-3.52212	0	0	0	0	0.778403	0	-0.207495	0	0	0
0.44	51.1185	772.911	-35.6001	0.238874	0.006	-0.0968415	0	-3.63992	0	0	0	0	0.778403	0	-0.207495	0	0	0
0.45	52.6992	784.033	-34.9318	0.245335	0.006	-0.0975775	0	-3.69188	0	0	0	0	0.778403	0	-0.207495	0	0	0
0.46	54.1348	794.653	-34.4172	0.252017	0.006	-0.0982245	0	-3.68604	0	0	0	0	0.778403	0	-0.207495	0	0	0
0.47	55.5422	804.784	-34.0525	0.258823	0.006	-0.0987965	0	-3.63227	0	0	0	0	0.778403	0	-0.207495	0	0	0
0.48	57.0474	814.431	-33.8229	0.265642	0.006	-0.0993105	0	-3.5413	0	0	0	0	0.778403	0	-0.207495	0	0	0
0.49	58.7712	823.547	-33.7035	0.272362	0.006	-0.0997815	0	-3.42401	0	0	0	0	0.778403	0	-0.207495	0	0	0
0.5	60.8128	831.993	-33.6609	0.278877	0.006	-0.100223	0	-3.29087	0	0	0	0	0.778403	0	-0.207495	0	0	0
0.51	63.2379	839.502	-33.6554	0.285099	0.006	-0.100649	0	-3.15147	0	0	0	0	0.778403	0	-0.207495	0	0	0
0.52	66.0709	845.667	-33.644	0.29096	0.006	-0.10107	0	-3.01413	0	0	0	0	0.778403	0	-0.207495	0	0	0
0.53	69.2886	849.941	-33.5803	0.29642	0.006	-0.101494	0	-2.88562	0	0	0	0	0.778403	0	-0.207495	0	0	0
0.54	72.8213	851.669	-33.4153	0.301465	0.006	-0.101925	0	-2.77126	0	0	0	0	0.778403	0	-0.207495	0	0	0
0.55	76.5606	850.128	-33.0967	0.306104	0.006	-0.102367	0	-2.67508	0	-0.0308702	22.611	-4.4066	0.778403	0.006	-0.207495	0	0.560134	0
0.56	80.3666	844.588	-32.5688	0.310361	0.006	-0.102821	0	-2.60014	0	-2.10172	44.8029	-5.01149	0.814351	0.006	-0.22967	0	0.649742	0
0.57	84.0702	834.359	-31.7729	0.314273	0.006	-0.103287	0	-2.5485	0	-5.02552	72.9334	-5.63616	0.83111	0.006	-0.239368	0	0.678849	0
0.58	87.475	818.836	-30.6503	0.317881	0.006	-0.103763	0	-2.52122	0	-8.9456	107.415	-6.24214	0.840728	0.006	-0.244469	0	0.683726	0
0.59	90.36	797.54	-29.1483	0.321232	0.006	-0.104248	0	-2.51791	0	-13.993	148.358	-6.7758	0.847223	0.006	-0.247563	0	0.672327	0
0.6	92.4897	770.159	-27.2286	0.324377	0.006	-0.104739	0	-2.53641	0	-20.296	195.459	-7.1671	0.852126	0.006	-0.249622	0	0.646001	0
0.61	93.6271	736.588	-24.8793	0.327365	0.006	-0.105235	0	-2.57219	0	-28.001	247.915	-7.33141	0.856152	0.006	-0.251095	0	0.603832	0
0.62	93.551	696.974	-22.1257	0.330249	0.006	-0.105733	0	-2.61766	0	-37.1537	304.442	-7.1663	0.859681	0.006	-0.252221	0	0.545135	0
0.63	92.08	651.737	-19.04	0.333079	0.006	-0.106227	0	-2.6622	0	-47.5045	363.48	-6.55054	0.862916	0.006	-0.253143	0	0.471618	0
0.64	89.1009	601.592	-15.742	0.335906	0.006	-0.10671	0	-2.69297	0	-58.5522	423.345	-5.36805	0.865963	0.006	-0.253948	0	0.387939	0
0.65	84.5949	547.527	-12.3906	0.338779	0.006	-0.107176	0	-2.69642	0	-69.7454	482.297	-3.54433	0.868877	0.006	-0.254688	0	0.300972	0
